<svg 
 xmlns="http://www.w3.org/2000/svg"
 xmlns:xlink="http://www.w3.org/1999/xlink"
 width="148.8px" height="42.2px">
<path fill-rule="evenodd"  fill="rgb(255, 255, 255)"
 d="M88.883,12.483 C88.883,11.000 88.724,9.509 87.633,8.442 C86.540,7.375 85.234,6.841 83.716,6.841 L78.162,6.841 C76.643,6.841 75.337,7.375 74.246,8.442 C73.153,9.509 72.607,10.784 72.607,12.267 C72.607,13.752 73.153,15.027 74.246,16.093 C75.337,17.161 76.643,17.694 78.162,17.694 L83.716,17.694 C86.752,17.694 89.363,18.763 91.548,20.896 C93.733,23.031 94.826,25.582 94.826,28.548 C94.826,31.515 93.733,34.066 91.548,36.200 C89.363,38.336 86.752,39.402 83.716,39.402 L78.162,39.402 C75.125,39.402 72.515,38.344 70.330,36.228 C68.145,34.111 66.672,31.320 66.672,28.316 L73.018,28.316 C73.018,29.800 73.153,31.308 74.246,32.374 C75.337,33.442 76.643,33.975 78.162,33.975 L83.716,33.975 C85.234,33.975 86.540,33.442 87.633,32.374 C88.724,31.308 89.271,30.032 89.271,28.548 C89.271,27.065 88.724,25.790 87.633,24.723 C86.540,23.656 85.234,23.121 83.716,23.121 L78.162,23.121 C75.125,23.121 72.515,22.055 70.330,19.919 C68.145,17.785 67.053,15.234 67.053,12.267 C67.053,9.302 68.145,6.751 70.330,4.615 C72.515,2.482 75.125,1.414 78.162,1.414 L83.716,1.414 C86.752,1.414 89.363,2.482 91.548,4.615 C93.733,6.751 95.230,9.517 95.230,12.483 L88.883,12.483 ZM54.315,8.442 C53.222,7.375 51.916,6.841 50.399,6.841 L44.844,6.841 C43.325,6.841 42.020,7.375 40.928,8.442 C39.835,9.509 39.289,10.784 39.289,12.267 C39.289,13.752 39.835,15.027 40.928,16.093 C42.020,17.161 43.325,17.694 44.844,17.694 L50.399,17.694 C53.434,17.694 56.045,18.763 58.230,20.896 C60.416,23.031 61.508,25.582 61.508,28.548 C61.508,31.515 60.416,34.066 58.230,36.200 C56.045,38.336 53.434,39.402 50.399,39.402 L44.844,39.402 C41.807,39.402 39.197,38.344 37.012,36.228 C34.827,34.111 33.354,31.320 33.354,28.316 L39.700,28.316 C39.700,29.800 39.835,31.308 40.928,32.374 C42.020,33.442 43.325,33.975 44.844,33.975 L50.399,33.975 C51.916,33.975 53.222,33.442 54.315,32.374 C55.406,31.308 55.953,30.032 55.953,28.548 C55.953,27.065 55.406,25.790 54.315,24.723 C53.222,23.656 51.916,23.121 50.399,23.121 L44.844,23.121 C41.807,23.121 39.197,22.055 37.012,19.919 C34.827,17.785 33.735,15.234 33.735,12.267 C33.735,9.302 34.827,6.751 37.012,4.615 C39.197,2.482 41.807,1.414 44.844,1.414 L50.399,1.414 C53.434,1.414 56.045,2.482 58.230,4.615 C60.416,6.751 61.912,9.517 61.912,12.483 L55.565,12.483 C55.565,11.000 55.406,9.509 54.315,8.442 ZM17.488,21.983 L4.795,21.983 L4.795,39.400 L0.017,39.402 L0.035,18.260 L0.017,6.807 L0.017,4.787 L0.017,1.414 L17.488,1.400 C20.561,1.400 22.374,2.472 24.541,4.588 C26.707,6.706 27.790,9.265 27.790,12.267 C27.790,15.236 26.698,17.785 24.513,19.920 C22.328,22.055 20.524,21.983 17.488,21.983 ZM20.661,7.733 C19.569,6.667 19.006,6.150 17.488,6.150 L4.795,6.150 L4.795,17.233 L17.488,17.233 C19.006,17.233 19.569,16.717 20.661,15.650 C21.753,14.583 22.248,12.384 22.248,10.899 C22.248,9.417 21.753,8.801 20.661,7.733 Z"/>
<path fill-rule="evenodd"  stroke="rgb(255, 255, 255)" stroke-width="2.8px" stroke-linecap="butt" stroke-linejoin="miter" fill="none"
 d="M146.000,15.650 L138.067,39.400 L111.095,39.400 L104.749,15.650 L125.374,1.400 L146.000,15.650 Z"/>
<path fill-rule="evenodd"  fill="rgb(255, 255, 255)"
 d="M122.673,21.167 L123.533,24.601 L107.978,29.033 L107.556,25.087 L122.673,21.167 Z"/>
<path fill-rule="evenodd"  fill="rgb(255, 255, 255)"
 d="M130.090,20.654 C130.771,23.188 129.264,25.792 126.725,26.471 C124.185,27.151 121.575,25.647 120.895,23.113 C120.215,20.579 121.722,17.974 124.261,17.295 C126.800,16.616 129.410,18.120 130.090,20.654 Z"/>
</svg>