<svg 
 xmlns="http://www.w3.org/2000/svg"
 xmlns:xlink="http://www.w3.org/1999/xlink"
 width="10px" height="10px">
<path fill-rule="evenodd"  fill="rgb(248, 101, 103)"
 d="M6.698,5.482 L9.739,8.524 C10.075,8.860 10.075,9.404 9.739,9.741 C9.404,10.077 8.858,10.077 8.523,9.741 L5.481,6.699 L2.439,9.741 C2.103,10.077 1.559,10.077 1.221,9.741 C0.886,9.404 0.886,8.860 1.221,8.524 L4.264,5.482 L1.221,2.440 C0.886,2.104 0.886,1.560 1.221,1.224 C1.559,0.888 2.103,0.888 2.439,1.224 L5.481,4.265 L8.523,1.224 C8.858,0.888 9.404,0.888 9.739,1.224 C10.075,1.560 10.075,2.104 9.739,2.440 L6.698,5.482 Z"/>
</svg>